<?xml version="1.0" encoding="UTF-8" standalone="no"?>
<!-- Created with Inkscape (http://www.inkscape.org/) -->

<svg
   width="127.99998mm"
   height="84.859528mm"
   viewBox="0 0 127.99998 84.859528"
   version="1.1"
   id="svg5"
   xml:space="preserve"
   xmlns="http://www.w3.org/2000/svg"
   xmlns:svg="http://www.w3.org/2000/svg"><defs
     id="defs2"><linearGradient
       id="linearGradient10118"><stop
         style="stop-color:#000000;stop-opacity:1;"
         offset="0"
         id="stop10116" /></linearGradient></defs><g
     id="layer1"
     transform="translate(-33.639615,-43.627421)"><rect
       style="display:none;fill:none;fill-opacity:1;stroke:#000000;stroke-width:0.25062;stroke-opacity:1"
       id="rect1729"
       width="18.887064"
       height="18.507067"
       x="96.321808"
       y="79.918686" /><text
       xml:space="preserve"
       style="font-size:58.0575px;fill:#f9f9f9;stroke-width:4.83811"
       x="63.541752"
       y="99.956131"
       id="text63"
       transform="scale(0.95071882,1.0518357)"><tspan
         id="tspan61"
         style="font-style:normal;font-variant:normal;font-weight:normal;font-stretch:normal;font-family:'Arial Rounded MT Bold';-inkscape-font-specification:'Arial Rounded MT Bold, ';fill:#f9f9f9;stroke-width:4.83811"
         x="63.541752"
         y="99.956131">WSI</tspan></text><g
       id="g10500"
       transform="matrix(0.1525529,-0.04667569,0.04057118,0.17549897,28.780053,50.889155)"
       style="fill:#f9f9f9;fill-opacity:1">
	<g
   id="g10498"
   style="fill:#f9f9f9;fill-opacity:1">
		<path
   style="fill:#f9f9f9;fill-opacity:1"
   d="m 273.501,115.618 c -3.862,-23.79 -13.788,-45.574 -28.212,-63.648 -0.12,-0.147 -0.234,-0.299 -0.354,-0.451 -9.284,-11.542 -20.391,-21.544 -32.879,-29.599 -0.092,-0.109 -0.185,-0.228 -0.277,-0.332 -0.767,-0.903 -1.784,-1.403 -2.85,-1.67 C 188.755,7.664 165.187,0.506 140.004,0.082 139.814,0.087 139.623,0.038 139.433,0.06 138.84,0.054 138.258,0 137.665,0 128.576,0 119.694,0.908 111.09,2.6 111.052,2.605 111.014,2.589 110.976,2.595 110.932,2.6 110.9,2.633 110.856,2.639 104.911,3.819 99.129,5.44 93.484,7.36 93.37,7.376 93.266,7.442 93.152,7.469 73.321,14.268 55.492,25.418 40.893,39.864 c -0.158,0.158 -0.321,0.299 -0.479,0.457 -5.744,5.738 -10.954,11.993 -15.621,18.667 -0.147,0.207 -0.299,0.413 -0.441,0.62 -8.217,11.894 -14.548,25.165 -18.72,39.35 -0.049,0.201 -0.141,0.392 -0.163,0.598 -3.503,12.118 -5.466,24.878 -5.466,38.112 0,10.971 1.327,21.637 3.764,31.873 0.038,0.152 0.071,0.31 0.109,0.462 5.651,23.377 17.269,44.432 33.167,61.472 0.212,0.228 0.435,0.451 0.647,0.68 9.834,10.399 21.25,19.287 33.885,26.233 0.016,0.011 0.038,0.022 0.054,0.033 19.613,10.769 42.115,16.91 66.03,16.91 v 0 0 c 0,0 0,0 0.005,0 6.293,0 12.472,-0.462 18.542,-1.284 0.114,-0.011 0.223,-0.011 0.337,-0.027 0.022,-0.005 0.038,-0.022 0.06,-0.022 31.601,-4.373 59.792,-19.499 80.776,-41.571 0.272,-0.288 0.549,-0.571 0.821,-0.865 11.808,-12.635 21.256,-27.484 27.669,-43.855 0.071,-0.185 0.147,-0.37 0.223,-0.56 5.939,-15.365 9.236,-32.042 9.236,-49.479 0,-7.239 -0.647,-14.321 -1.73,-21.261 -0.032,-0.267 -0.027,-0.533 -0.097,-0.789 z M 168.717,260.596 c -2.828,0.713 -5.7,1.311 -8.599,1.828 l -4.068,-24.22 c 12.118,-1.969 23.236,-4.542 33.369,-7.582 -10.035,19.053 -20.293,29.48 -20.511,29.692 -0.088,0.076 -0.115,0.19 -0.191,0.282 z M 37.864,185.875 c 7.919,2.154 17.247,4.068 28.027,5.385 6.162,15.659 13.81,28.827 21.767,39.738 C 76.568,230.226 66.93,228.779 58.695,227.011 50.978,215.887 43.537,202.235 37.864,185.875 Z M 10.875,137.668 c 0,-10.182 1.24,-20.081 3.519,-29.578 1.311,0.598 2.883,1.262 4.596,1.947 -2.159,17.905 -1.947,37.225 2.382,57.235 0.114,0.533 0.256,1.033 0.375,1.561 -3.258,-1.43 -5.88,-2.752 -7.87,-3.862 -1.946,-8.794 -3.002,-17.926 -3.002,-27.303 z m 21.126,27.31 c -3.845,-17.797 -4.242,-35.071 -2.524,-51.198 6.5,2.045 14.473,4.058 23.829,5.657 -0.495,13.462 0.479,27.609 3.617,42.147 1.382,6.385 3.046,12.423 4.89,18.199 -11.063,-1.637 -20.271,-3.916 -27.75,-6.326 -0.735,-2.768 -1.431,-5.58 -2.062,-8.479 z M 39.414,70.12 c 6.973,1.202 14.158,1.991 21.473,2.497 -3.122,10.96 -5.591,22.991 -6.831,35.767 -9.176,-1.632 -16.921,-3.66 -23.024,-5.646 1.969,-11.677 4.928,-22.659 8.382,-32.618 z m 68.054,-55.581 7.56,45.019 c -14.408,2.078 -27.5,2.834 -39.172,2.752 8.414,-23.584 18.77,-40.189 21.93,-44.976 3.177,-1.049 6.402,-1.99 9.682,-2.795 z M 77.292,73.253 c 12.695,0 25.836,-0.979 39.352,-2.932 0.065,-0.011 0.125,-0.022 0.185,-0.033 l 6.587,39.221 c -22.904,2.845 -42.463,2.426 -58.459,0.484 1.295,-13.228 4.003,-25.651 7.359,-36.877 1.658,0.039 3.295,0.137 4.976,0.137 z m -9.736,86.03 c -2.834,-13.114 -3.726,-25.955 -3.318,-38.258 8.104,0.941 17.051,1.523 26.836,1.523 10.427,0 21.854,-0.707 34.146,-2.263 l 9.943,59.215 c -24.111,3.117 -44.497,3.225 -61.38,1.686 -2.42,-6.837 -4.541,-14.114 -6.227,-21.903 z m 68.418,-40.652 c 25.776,-4.422 46.629,-12.744 62.886,-21.93 4.623,12.706 7.974,26.548 9.148,41.37 0.566,7.158 0.571,13.946 0.332,20.538 -16.41,8.017 -37.002,15.142 -62.402,19.347 z m 82.88,18.58 c -1.327,-16.741 -5.173,-32.21 -10.427,-46.281 10.073,-6.56 17.9,-13.13 23.731,-18.71 8.322,17.073 14.772,36.861 16.518,58.851 0.005,0.087 0.005,0.169 0.016,0.25 -6.951,6.494 -16.546,14.093 -29.23,21.397 0.001,-5.02 -0.183,-10.182 -0.608,-15.507 z M 206.883,32.738 c 6.641,8.235 13.619,18.107 19.961,29.382 -5.232,5.211 -12.727,11.759 -22.643,18.411 -5.521,-12.455 -12.058,-23.633 -18.776,-33.401 8.372,-4.771 15.502,-9.72 21.458,-14.392 z m -12.129,53.689 c -15.496,8.953 -35.637,17.182 -60.58,21.479 l -6.63,-39.488 c 18.667,-3.709 34.62,-9.513 47.989,-16.078 6.901,9.899 13.64,21.316 19.221,34.087 z M 78.206,192.45 c 5.657,0.392 11.64,0.609 17.971,0.609 12.281,0 25.917,-0.876 40.793,-2.817 l 6.511,38.791 c -15.327,1.947 -29.121,2.665 -41.44,2.524 -8.47,-10.339 -16.95,-23.279 -23.835,-39.107 z m 76.043,35.028 -6.511,-38.786 c 23.742,-3.922 43.474,-10.22 59.705,-17.481 -1.958,17.807 -6.413,33.216 -11.716,45.966 -12.118,4.226 -25.928,7.777 -41.478,10.301 z m 64.774,-61.897 c 12.439,-6.554 22.404,-13.522 30.209,-19.999 -0.016,18.128 -2.796,34.136 -6.783,47.788 -8.811,6.288 -19.624,12.646 -32.754,18.335 4.574,-13.223 8.131,-28.632 9.328,-46.124 z m 45.432,-27.913 c 0,15.556 -2.834,30.459 -7.979,44.247 2.779,-13.658 4.226,-29.061 3.383,-46.036 1.643,-1.664 3.122,-3.247 4.433,-4.721 0.104,2.153 0.163,4.324 0.163,6.51 z m -5.928,-16.627 c -2.926,-21.359 -9.877,-40.526 -18.362,-57.105 0.092,-0.109 0.218,-0.239 0.31,-0.343 11.02,15.251 18.721,33.031 22.072,52.291 -0.833,1.176 -2.149,2.932 -4.02,5.157 z M 197.74,26.042 c -5.319,4.014 -11.553,8.186 -18.732,12.205 -8.387,-11.02 -16.605,-19.787 -23.034,-26.031 14.913,2.165 28.995,6.924 41.766,13.826 z M 137.665,10.878 c 0.196,0 0.386,0.016 0.582,0.016 4.155,3.47 17.079,14.843 30.758,32.547 -12.162,5.803 -26.564,10.9 -43.257,14.245 l -7.609,-45.302 c 6.364,-0.989 12.885,-1.506 19.526,-1.506 z M 64.222,61.935 C 56.45,61.489 49.52,60.679 43.347,59.7 45.098,55.365 46.893,51.264 48.699,47.446 58.092,38.183 68.921,30.389 80.811,24.395 75.78,33.488 69.519,46.341 64.222,61.935 Z M 25.158,79.318 c -1.757,6.249 -3.285,12.782 -4.509,19.57 -1.235,-0.522 -2.295,-0.995 -3.204,-1.42 2.106,-6.288 4.689,-12.347 7.713,-18.15 z m -0.011,102.57 c 4.395,14.658 10.166,27.424 16.48,38.416 C 31.26,208.273 23.112,194.289 17.82,178.973 c 2.204,0.946 4.619,1.925 7.327,2.915 z m 51.753,67.02 c -2.676,-2.692 -5.477,-5.711 -8.338,-9.072 8.327,1.256 17.682,2.154 28.098,2.48 7.56,8.724 14.968,15.529 21.256,20.592 -14.647,-2.301 -28.473,-7.12 -41.016,-14 z m 62.136,15.512 c -3.486,-2.04 -14.615,-9.051 -27.342,-22.061 10.312,-0.239 21.506,-1.061 33.586,-2.605 l 4.052,24.144 c -3.394,0.31 -6.831,0.484 -10.296,0.522 z m 65.165,-38.797 c 12.396,-4.661 23.138,-9.937 32.313,-15.398 -2.246,5.434 -4.601,10.318 -6.913,14.615 -11.656,12.287 -25.732,22.257 -41.473,29.11 4.961,-6.978 10.787,-16.47 16.073,-28.327 z"
   id="path10496" />
	</g>
</g><g
       style="fill:#0044aa;fill-opacity:1"
       id="g12260"
       transform="matrix(0.01648299,0,0,0.021965,153.3459,77.628065)"><g
         id="g12169"
         style="fill:#0044aa;fill-opacity:1">
	<g
   id="g12167"
   style="fill:#0044aa;fill-opacity:1">
		<path
   d="m 387.942,226.563 c 0,-72.753 -59.189,-131.943 -131.943,-131.943 -27.422,0 -53.716,8.335 -76.04,24.103 -3.557,2.513 -4.403,7.433 -1.891,10.99 2.514,3.557 7.433,4.403 10.99,1.891 19.648,-13.878 42.796,-21.214 66.942,-21.214 64.058,0 116.172,52.115 116.172,116.172 0,45.82 -27.052,87.489 -68.919,106.155 -2.843,1.268 -4.674,4.089 -4.674,7.202 v 23.842 h -9.4 V 256.893 h 14.099 c 9.877,0 18.547,-5.959 22.085,-15.18 3.539,-9.221 1.081,-19.45 -6.261,-26.057 l -6.214,-5.593 c -7.042,-6.339 -16.794,-7.881 -25.449,-4.027 -8.655,3.855 -14.031,12.134 -14.031,21.609 v 13.478 H 238.59 v -13.478 c 0,-9.475 -5.377,-17.754 -14.031,-21.609 -8.655,-3.855 -18.406,-2.312 -25.449,4.027 l -6.213,5.593 c -7.341,6.608 -9.799,16.836 -6.261,26.057 3.539,9.221 12.208,15.18 22.085,15.18 h 14.099 v 106.869 h -9.401 V 339.92 c 0,-3.113 -1.831,-5.935 -4.674,-7.202 -41.867,-18.666 -68.919,-60.335 -68.919,-106.155 0,-26.823 8.878,-52.014 25.675,-72.85 2.732,-3.391 2.199,-8.355 -1.19,-11.087 -3.39,-2.731 -8.354,-2.199 -11.087,1.19 -18.808,23.333 -29.167,52.72 -29.167,82.747 0,50.314 28.716,96.217 73.593,118.363 v 18.836 h -17.347 c -4.355,0 -7.885,3.53 -7.885,7.885 v 85.158 c 0,30.435 24.76,55.195 55.195,55.195 h 56.772 c 30.435,0 55.195,-24.76 55.195,-55.195 v -22.078 c 0,-4.355 -3.53,-7.885 -7.885,-7.885 -4.355,0 -7.885,3.53 -7.885,7.885 V 448.92 H 188.189 v -27.335 h 114.07 c 4.355,0 7.885,-3.53 7.885,-7.885 0,-4.355 -3.53,-7.885 -7.885,-7.885 h -114.07 v -26.283 h 135.622 v 13.142 c 0,4.355 3.53,7.885 7.885,7.885 4.355,0 7.885,-3.53 7.885,-7.885 v -21.027 c 0,-4.355 -3.53,-7.885 -7.885,-7.885 h -17.347 v -18.836 c 44.877,-22.147 73.593,-68.051 73.593,-118.363 z m -98.763,1.081 v 0 c 0,-4.751 3.58,-6.714 4.677,-7.203 1.098,-0.488 4.952,-1.836 8.482,1.341 l 6.214,5.593 c 3.737,3.364 2.542,7.498 2.087,8.686 -0.455,1.187 -2.333,5.06 -7.361,5.06 h -14.099 z m -66.358,13.479 h -14.099 c -7.11,0 -10.589,-8.964 -5.275,-13.746 l 6.213,-5.593 c 5.023,-4.521 13.161,-0.834 13.161,5.861 z M 323.018,464.69 c -3.664,17.974 -19.593,31.54 -38.632,31.54 h -56.772 c -19.04,0 -34.968,-13.566 -38.631,-31.54 z M 273.409,363.762 H 238.591 V 256.893 h 34.818 z"
   id="path12165"
   style="fill:#0044aa;fill-opacity:1" />
	</g>
</g><g
         id="g12175"
         style="fill:#0044aa;fill-opacity:1">
	<g
   id="g12173"
   style="fill:#0044aa;fill-opacity:1">
		<path
   d="m 256,0 c -4.355,0 -7.885,3.53 -7.885,7.885 v 44.156 c 0,4.355 3.53,7.885 7.885,7.885 4.355,0 7.885,-3.53 7.885,-7.885 V 7.885 C 263.885,3.53 260.355,0 256,0 Z"
   id="path12171"
   style="fill:#0044aa;fill-opacity:1" />
	</g>
</g><g
         id="g12181"
         style="fill:#0044aa;fill-opacity:1">
	<g
   id="g12179"
   style="fill:#0044aa;fill-opacity:1">
		<path
   d="m 174.517,71.762 -22.078,-38.24 c -2.177,-3.771 -7,-5.064 -10.771,-2.886 -3.771,2.177 -5.063,7 -2.886,10.771 l 22.077,38.24 c 2.317,4.014 7.767,5.156 11.508,2.405 3.194,-2.348 4.13,-6.859 2.15,-10.29 z"
   id="path12177"
   style="fill:#0044aa;fill-opacity:1" />
	</g>
</g><g
         id="g12187"
         style="fill:#0044aa;fill-opacity:1">
	<g
   id="g12185"
   style="fill:#0044aa;fill-opacity:1">
		<path
   d="m 106.982,133.525 -38.24,-22.078 c -3.772,-2.178 -8.595,-0.885 -10.771,2.886 -2.177,3.771 -0.885,8.594 2.886,10.771 l 38.24,22.078 c 4.022,2.323 9.308,0.572 11.168,-3.671 1.592,-3.631 0.147,-8.007 -3.283,-9.986 z"
   id="path12183"
   style="fill:#0044aa;fill-opacity:1" />
	</g>
</g><g
         id="g12193"
         style="fill:#0044aa;fill-opacity:1">
	<g
   id="g12191"
   style="fill:#0044aa;fill-opacity:1">
		<path
   d="M 79.376,220.78 H 35.22 c -4.355,0 -7.885,3.53 -7.885,7.885 0,4.355 3.53,7.885 7.885,7.885 h 44.156 c 4.355,0 7.885,-3.53 7.885,-7.885 0,-4.354 -3.531,-7.885 -7.885,-7.885 z"
   id="path12189"
   style="fill:#0044aa;fill-opacity:1" />
	</g>
</g><g
         id="g12199"
         style="fill:#0044aa;fill-opacity:1">
	<g
   id="g12197"
   style="fill:#0044aa;fill-opacity:1">
		<path
   d="m 109.868,313.036 c -2.177,-3.771 -7,-5.064 -10.771,-2.887 l -38.24,22.078 c -3.43,1.98 -4.875,6.355 -3.283,9.987 1.86,4.243 7.146,5.995 11.168,3.671 l 38.24,-22.078 c 3.771,-2.177 5.063,-7 2.886,-10.771 z"
   id="path12195"
   style="fill:#0044aa;fill-opacity:1" />
	</g>
</g><g
         id="g12205"
         style="fill:#0044aa;fill-opacity:1">
	<g
   id="g12203"
   style="fill:#0044aa;fill-opacity:1">
		<path
   d="m 451.143,332.227 -38.24,-22.078 c -3.772,-2.178 -8.594,-0.885 -10.771,2.886 -2.177,3.771 -0.885,8.594 2.886,10.771 l 38.24,22.078 c 4.022,2.323 9.309,0.572 11.168,-3.671 1.593,-3.631 0.148,-8.006 -3.283,-9.986 z"
   id="path12201"
   style="fill:#0044aa;fill-opacity:1" />
	</g>
</g><g
         id="g12211"
         style="fill:#0044aa;fill-opacity:1">
	<g
   id="g12209"
   style="fill:#0044aa;fill-opacity:1">
		<path
   d="m 476.78,220.78 h -44.156 c -4.355,0 -7.885,3.53 -7.885,7.885 0,4.355 3.53,7.885 7.885,7.885 h 44.156 c 4.355,0 7.885,-3.53 7.885,-7.885 0,-4.354 -3.53,-7.885 -7.885,-7.885 z"
   id="path12207"
   style="fill:#0044aa;fill-opacity:1" />
	</g>
</g><g
         id="g12217"
         style="fill:#0044aa;fill-opacity:1">
	<g
   id="g12215"
   style="fill:#0044aa;fill-opacity:1">
		<path
   d="m 454.029,114.333 c -2.177,-3.771 -7,-5.063 -10.771,-2.886 l -38.24,22.078 c -3.771,2.177 -5.063,7 -2.886,10.771 1.46,2.529 4.111,3.944 6.836,3.944 1.337,0 2.694,-0.341 3.935,-1.058 l 38.24,-22.078 c 3.772,-2.178 5.064,-7 2.886,-10.771 z"
   id="path12213"
   style="fill:#0044aa;fill-opacity:1" />
	</g>
</g><g
         id="g12223"
         style="fill:#0044aa;fill-opacity:1">
	<g
   id="g12221"
   style="fill:#0044aa;fill-opacity:1">
		<path
   d="m 370.333,30.636 c -3.771,-2.178 -8.594,-0.885 -10.771,2.886 l -22.078,38.24 c -2.177,3.771 -0.885,8.594 2.886,10.771 3.725,2.151 8.624,0.833 10.771,-2.886 l 22.078,-38.24 c 2.177,-3.771 0.885,-8.594 -2.886,-10.771 z"
   id="path12219"
   style="fill:#0044aa;fill-opacity:1" />
	</g>
</g></g><text
       xml:space="preserve"
       style="font-size:12.7564px;font-family:'Arial Rounded MT Bold';-inkscape-font-specification:'Arial Rounded MT Bold, ';fill:#f9f9f9;fill-opacity:1;stroke:none;stroke-width:1.06302"
       x="38.931808"
       y="107.72453"
       id="text369"
       transform="scale(0.85925355,1.1638008)"><tspan
         id="tspan367"
         x="38.931808"
         y="107.72453"
         style="fill:#f9f9f9;fill-opacity:1;stroke:none;stroke-width:1.06302">Web Sphere Innovations</tspan></text></g></svg>
